# xmcd
#
# Track frame offsets: 
#        150
#        17975
#        38737
#        58937
#        75200
#        91537
#        110900
#        126612
#        142037
#        164937
#
# Disc length: 2361 seconds
#
# Revision: 1
# Processed by: cddbd v1.5.2PL0 Copyright (c) Steve Scherf et al.
# Submitted via: ExactAudioCopy v0.95b4
#
DISCID=8d09370a
DTITLE=CeDell Davis - The Best Of CeDell Davis
DYEAR=1995
DGENRE=
TTITLE0=My dog won't stay home
TTITLE1=Rock
TTITLE2=Broke and Hungry
TTITLE3=Keep your mouth closed baby
TTITLE4=Laura Mae
TTITLE5=Get to steppin' baby
TTITLE6=Baby don't do it
TTITLE7=CeDell's boogie
TTITLE8=fattin frogs for Snakes
TTITLE9=I Gotta girl she lives up on the hill
EXTD=
EXTT0=
EXTT1=
EXTT2=
EXTT3=
EXTT4=
EXTT5=
EXTT6=
EXTT7=
EXTT8=
EXTT9=
PLAYORDER=
